<?xml version="1.0" standalone="no"?>
<!DOCTYPE svg PUBLIC "-//W3C//DTD SVG 20010904//EN"
 "http://www.w3.org/TR/2001/REC-SVG-20010904/DTD/svg10.dtd">
<svg version="1.0" xmlns="http://www.w3.org/2000/svg"
 width="1993.000000pt" height="476.000000pt" viewBox="0 0 1993.000000 476.000000"
 preserveAspectRatio="xMidYMid meet">

<g transform="translate(0.000000,476.000000) scale(0.100000,-0.100000)"
fill="#7cce83" stroke="none">
<path d="M19470 4698 c-126 -282 -1147 -2457 -1154 -2458 -5 -1 -111 215 -234
479 l-224 481 -209 0 c-115 0 -209 -3 -209 -7 0 -3 156 -341 347 -750 l346
-743 186 0 186 0 705 1512 c388 831 707 1515 708 1519 2 5 -94 9 -213 9 l-216
0 -19 -42z"/>
<path d="M7790 3825 l0 -345 390 0 390 0 0 345 0 345 -390 0 -390 0 0 -345z"/>
<path d="M4056 3160 c-309 -39 -552 -154 -757 -359 -256 -257 -398 -614 -431
-1091 -38 -553 110 -1045 405 -1341 199 -201 465 -324 770 -358 610 -68 1186
202 1454 682 39 71 113 244 113 266 0 8 -105 11 -379 11 l-380 0 -26 -52
c-104 -208 -302 -321 -560 -321 -191 -1 -322 49 -440 168 -117 117 -166 253
-181 503 l-7 112 1001 0 1001 0 7 58 c9 69 -10 366 -32 512 -58 389 -211 685
-466 905 -162 139 -370 238 -601 285 -115 24 -376 35 -491 20z m334 -605 c173
-46 327 -184 389 -349 21 -56 45 -165 55 -253 l7 -53 -597 0 -596 0 7 53 c25
184 100 368 190 465 128 138 340 192 545 137z"/>
<path d="M7385 3163 c-275 -40 -515 -227 -670 -523 l-50 -95 -3 288 -2 287
-385 0 -385 0 0 -1495 0 -1495 384 0 385 0 4 867 c3 856 4 869 26 952 61 235
198 372 426 427 77 19 305 25 413 11 l62 -8 -2 393 -3 393 -85 1 c-47 1 -98
-1 -115 -3z"/>
<path d="M12694 3159 c-604 -44 -1047 -377 -1230 -924 -69 -208 -96 -392 -96
-655 -1 -611 209 -1073 607 -1339 162 -108 339 -177 560 -217 141 -26 469 -26
610 0 347 63 623 214 820 447 171 203 279 448 331 754 9 49 18 176 21 280 10
365 -47 665 -179 929 -173 347 -448 570 -838 676 -156 42 -415 63 -606 49z
m281 -634 c353 -74 566 -431 567 -950 0 -225 -33 -386 -113 -550 -125 -257
-330 -395 -584 -395 -183 0 -311 54 -440 185 -92 93 -134 160 -183 288 -93
248 -107 565 -36 846 45 182 164 378 280 463 152 111 331 150 509 113z"/>
<path d="M16104 3156 c-225 -37 -393 -122 -544 -277 -42 -42 -91 -99 -110
-127 -19 -28 -38 -52 -42 -52 -5 0 -8 95 -8 210 l0 210 -385 0 -385 0 0 -1495
0 -1495 384 0 385 0 3 952 3 953 28 82 c52 154 138 252 282 323 171 84 408 93
570 21 61 -27 146 -109 178 -173 64 -128 61 -74 65 -1166 l3 -992 385 0 385 0
-4 1118 c-3 1103 -3 1118 -24 1204 -94 380 -318 604 -689 688 -116 27 -365 35
-480 16z"/>
<path d="M22 3108 c3 -7 238 -680 524 -1495 l518 -1483 407 0 407 0 20 58 c11
31 230 667 487 1412 257 745 480 1392 496 1438 l28 82 -411 -2 -411 -3 -271
-985 c-150 -542 -285 -1031 -300 -1088 -16 -56 -30 -101 -32 -100 -3 4 -644
2165 -644 2173 0 3 -185 5 -411 5 -325 0 -410 -3 -407 -12z"/>
<path d="M7790 1625 l0 -1495 390 0 390 0 0 1495 0 1495 -390 0 -390 0 0
-1495z"/>
<path d="M8900 2805 l0 -315 683 -2 684 -3 -734 -862 -733 -863 0 -315 0 -315
1235 0 1235 0 0 315 0 315 -754 2 -754 3 729 863 729 864 0 314 0 314 -1160 0
-1160 0 0 -315z"/>
</g>
</svg>
